<?xml version="1.0" standalone="no"?>
<!DOCTYPE svg PUBLIC "-//W3C//DTD SVG 20010904//EN"
 "http://www.w3.org/TR/2001/REC-SVG-20010904/DTD/svg10.dtd">
<svg version="1.0" xmlns="http://www.w3.org/2000/svg"
 width="3952.000000pt" height="1344.000000pt" viewBox="0 0 3952.000000 1344.000000"
 preserveAspectRatio="xMidYMid meet">

<g transform="translate(0.000000,1344.000000) scale(0.100000,-0.100000)"
fill="#000000" stroke="none">
<path d="M5604 13326 c-486 -305 -997 -660 -1444 -1005 -432 -333 -858 -695
-1229 -1045 -1298 -1225 -2209 -2590 -2640 -3956 -66 -211 -145 -509 -137
-517 2 -2 16 18 31 44 71 121 286 456 401 623 519 756 1096 1393 1834 2027
517 443 1017 819 2293 1722 271 191 591 418 712 504 244 174 284 193 390 185
81 -7 114 -25 360 -201 476 -341 902 -677 1299 -1025 71 -62 132 -111 137
-110 6 2 647 847 719 948 l18 26 -131 116 c-667 588 -1443 1157 -2353 1726
l-81 50 -179 -112z"/>
<path d="M5130 10764 c-1448 -1025 -1915 -1379 -2515 -1913 -174 -155 -623
-603 -771 -771 -651 -736 -1181 -1545 -1728 -2638 l-116 -232 0 -1095 0 -1095
1388 -2 c1302 -3 1389 -4 1426 -21 70 -31 123 -83 158 -155 l33 -67 3 -1387 2
-1388 4275 0 4274 0 3 2783 c2 1530 0 2866 -4 2970 -40 1085 -429 2253 -1118
3357 -316 508 -706 1017 -1152 1506 -197 215 -484 511 -491 504 -2 -3 -210
-277 -462 -610 -252 -333 -467 -615 -478 -628 -12 -13 -50 -37 -86 -55 -53
-26 -75 -31 -131 -31 -107 1 -151 28 -341 204 -313 292 -580 519 -924 787
-253 197 -575 433 -590 433 -6 0 -301 -205 -655 -456z m5027 -2136 c115 -61
173 -154 173 -278 0 -90 -20 -138 -80 -204 -23 -25 -68 -58 -99 -73 l-56 -28
-2965 0 -2965 0 -53 24 c-66 30 -144 113 -166 177 -56 166 28 339 194 397 41
15 332 16 3005 14 l2960 -2 52 -27z m-10 -1877 c61 -27 135 -102 163 -164 29
-63 27 -176 -4 -243 -31 -66 -85 -120 -155 -153 l-56 -26 -3735 0 -3735 0 -56
26 c-96 45 -165 136 -184 240 -17 93 45 230 129 287 99 66 -227 61 3861 59
l3720 -2 52 -24z m10 -1889 c67 -35 110 -79 143 -144 55 -112 37 -244 -46
-337 -26 -29 -69 -62 -102 -78 l-57 -28 -3735 0 -3735 0 -55 26 c-244 116
-247 446 -5 561 l60 28 3745 -2 3745 -3 42 -23z m-5 -1880 c64 -32 125 -93
154 -155 19 -41 24 -69 24 -129 0 -67 -4 -84 -33 -139 -22 -44 -48 -75 -82
-101 -97 -74 174 -68 -3105 -66 l-2955 3 -46 21 c-67 31 -114 78 -149 146 -82
165 1 368 178 433 31 11 506 13 3002 12 l2965 -2 47 -23z"/>
<path d="M26980 10613 c-724 -40 -1273 -365 -1478 -872 -58 -145 -83 -273 -89
-463 -14 -423 81 -683 347 -948 192 -191 452 -323 951 -486 582 -189 681 -227
808 -313 88 -60 164 -140 197 -208 27 -54 29 -66 29 -178 0 -114 -2 -123 -32
-187 -79 -167 -247 -251 -503 -252 -201 0 -320 42 -430 153 -88 88 -148 219
-162 346 l-3 30 -612 3 -611 2 5 -62 c16 -210 60 -374 143 -543 69 -141 133
-228 251 -345 262 -260 644 -428 1104 -485 173 -22 499 -22 660 0 673 90 1158
456 1334 1008 50 158 64 274 58 477 -10 313 -80 503 -265 714 -216 247 -496
397 -1182 631 -573 195 -762 299 -842 463 -31 63 -33 72 -32 177 1 136 22 200
94 278 113 124 297 172 507 132 220 -42 385 -203 417 -407 l10 -68 620 0 619
0 -7 83 c-14 163 -64 352 -131 492 -60 125 -134 226 -249 340 -197 197 -421
324 -717 409 -215 62 -545 94 -809 79z"/>
<path d="M17575 10533 c-4 -10 -387 -1069 -852 -2353 -464 -1284 -847 -2338
-849 -2342 -3 -5 266 -7 597 -6 l603 3 141 415 140 415 881 3 882 2 99 -292
c55 -161 119 -350 142 -420 l43 -128 609 0 c336 0 608 4 605 8 -3 4 -385 1059
-850 2343 -464 1283 -847 2342 -851 2352 -7 16 -48 17 -670 17 -622 0 -663 -1
-670 -17z m959 -2123 c157 -464 286 -848 286 -852 0 -4 -261 -8 -581 -8 -461
0 -580 3 -577 13 3 6 133 395 289 864 156 469 287 847 291 840 3 -7 135 -393
292 -857z"/>
<path d="M21140 8190 l0 -2360 575 0 575 0 0 890 0 890 139 0 138 0 483 -877
c266 -483 488 -884 494 -891 9 -9 148 -12 654 -10 l642 3 -537 920 c-294 506
-536 926 -537 933 -1 8 35 27 89 47 123 45 186 74 285 133 318 189 538 496
628 875 24 101 26 132 27 312 0 294 -36 462 -150 690 -212 424 -618 687 -1207
782 -91 15 -236 17 -1200 20 l-1098 4 0 -2361z m2092 1383 c104 -29 166 -63
236 -128 110 -102 165 -243 165 -425 0 -130 -15 -204 -60 -300 -65 -137 -179
-225 -351 -272 -71 -20 -108 -22 -504 -26 l-428 -4 0 592 0 591 433 -3 c403
-4 437 -6 509 -25z"/>
<path d="M29670 8190 l0 -2360 570 0 570 0 0 2360 0 2360 -570 0 -570 0 0
-2360z"/>
<path d="M31650 8191 l0 -2361 575 0 575 0 0 850 0 850 448 0 c474 0 601 8
799 51 274 59 506 172 716 347 223 186 379 455 449 775 19 88 22 133 22 327 1
259 -11 343 -74 531 -69 209 -158 357 -306 509 -243 251 -553 394 -999 461
-58 9 -379 13 -1142 16 l-1063 4 0 -2360z m2056 1396 c187 -63 299 -180 350
-368 21 -79 24 -279 5 -359 -37 -154 -131 -280 -257 -343 -137 -69 -145 -70
-596 -74 l-408 -4 0 591 0 591 413 -3 412 -4 81 -27z"/>
<path d="M15701 4709 c-66 -13 -142 -60 -184 -115 -122 -159 -69 -380 113
-475 l45 -24 10805 0 10805 0 50 25 c143 70 211 240 158 396 -22 65 -110 153
-178 180 -49 19 -214 19 -10810 20 -5961 1 -10779 -2 -10804 -7z"/>
<path d="M21566 3186 c-92 -34 -147 -105 -154 -196 -6 -81 16 -138 74 -188 55
-49 113 -66 203 -60 117 9 193 69 221 176 25 95 -29 205 -124 254 -53 27 -165
34 -220 14z"/>
<path d="M26420 3191 c-110 -36 -170 -115 -170 -226 0 -70 17 -112 65 -158 62
-60 179 -84 279 -56 45 13 118 76 140 123 21 45 21 147 0 189 -43 84 -115 129
-219 133 -38 2 -81 0 -95 -5z"/>
<path d="M36592 3191 c-170 -44 -231 -268 -103 -384 58 -52 116 -71 205 -65
92 6 155 39 196 104 74 118 30 264 -100 329 -39 20 -148 29 -198 16z"/>
<path d="M19145 3038 c-3 -7 -4 -427 -3 -933 l3 -920 213 -3 212 -2 0 935 0
935 -210 0 c-159 0 -212 -3 -215 -12z"/>
<path d="M26955 3038 c-3 -7 -4 -427 -3 -933 l3 -920 213 -3 212 -2 0 403 c0
443 4 485 59 562 43 60 125 99 209 99 37 0 85 -6 106 -13 55 -19 119 -82 147
-144 24 -52 24 -55 27 -479 l3 -428 210 0 210 0 -3 488 c-3 424 -6 495 -21
545 -29 97 -66 165 -128 231 -99 106 -220 156 -379 156 -160 0 -289 -49 -387
-148 l-53 -52 0 325 0 325 -210 0 c-159 0 -212 -3 -215 -12z"/>
<path d="M15920 2065 l0 -887 478 5 c525 5 552 7 679 68 227 108 319 392 202
621 -46 90 -194 208 -261 208 -33 0 -19 15 37 39 181 78 270 276 220 489 -36
153 -155 264 -342 319 -50 15 -121 18 -535 21 l-478 3 0 -886z m806 530 c85
-25 124 -81 124 -178 0 -81 -25 -122 -95 -157 -46 -23 -63 -25 -227 -28 l-178
-4 0 191 0 191 163 0 c115 0 178 -4 213 -15z m38 -687 c93 -28 148 -126 128
-225 -13 -64 -34 -94 -87 -125 -38 -22 -52 -23 -247 -26 l-208 -3 0 195 0 196
186 0 c119 0 202 -4 228 -12z"/>
<path d="M22580 2065 l0 -885 495 0 495 0 0 165 0 165 -282 2 -283 3 -3 718
-2 717 -210 0 -210 0 0 -885z"/>
<path d="M32300 2065 l0 -885 210 0 210 0 0 390 c0 215 3 390 8 389 4 0 140
-175 302 -389 l295 -390 258 0 c141 0 257 3 257 6 0 3 -157 205 -350 449 -192
245 -350 447 -350 451 0 4 15 25 33 48 19 23 172 215 340 429 l307 387 -253 0
-252 -1 -290 -384 c-159 -211 -293 -384 -297 -385 -5 0 -8 173 -8 385 l0 385
-210 0 -210 0 0 -885z"/>
<path d="M25410 2760 l0 -170 -90 0 -90 0 2 -177 3 -178 88 -3 87 -3 0 -328
c0 -181 4 -352 10 -381 32 -169 145 -281 320 -320 30 -6 128 -14 218 -17 l162
-6 0 187 0 186 -105 0 c-128 0 -159 12 -174 68 -7 21 -11 156 -11 324 l0 287
143 3 142 3 3 178 2 177 -145 0 -145 0 0 170 0 170 -210 0 -210 0 0 -170z"/>
<path d="M17933 2600 c-340 -62 -552 -406 -503 -820 35 -301 182 -503 427
-586 102 -35 252 -37 354 -5 84 27 173 84 227 147 l42 49 0 -102 0 -103 210 0
210 0 0 705 0 705 -210 0 -210 0 0 -101 0 -101 -47 53 c-93 103 -210 156 -361
164 -48 2 -110 0 -139 -5z m357 -391 c133 -58 209 -222 181 -392 -28 -171
-145 -277 -304 -277 -124 0 -210 53 -267 164 -34 67 -35 72 -35 185 0 97 3
124 21 162 74 158 246 226 404 158z"/>
<path d="M20246 2600 c-129 -23 -227 -74 -316 -164 -97 -98 -158 -219 -187
-371 -19 -100 -12 -330 12 -420 62 -229 232 -408 436 -461 78 -20 214 -22 289
-5 87 21 182 76 244 141 l56 59 0 -100 0 -99 215 0 215 0 0 705 0 705 -215 0
-215 0 0 -101 0 -102 -35 45 c-45 60 -140 123 -224 148 -75 24 -203 33 -275
20z m298 -375 c157 -41 244 -177 234 -365 -6 -104 -31 -167 -91 -229 -62 -64
-125 -91 -217 -91 -96 0 -158 28 -220 97 -75 83 -105 209 -80 335 21 108 75
185 160 228 78 40 132 46 214 25z"/>
<path d="M24136 2600 c-241 -43 -407 -200 -488 -460 -20 -67 -23 -95 -23 -250
0 -153 3 -185 23 -255 83 -286 307 -468 577 -469 165 0 293 51 390 156 l55 59
0 -100 0 -101 215 0 215 0 0 705 0 705 -215 0 -215 0 0 -101 0 -102 -35 45
c-45 60 -140 123 -224 148 -75 24 -203 33 -275 20z m324 -382 c77 -24 147 -92
187 -183 27 -62 25 -244 -4 -307 -30 -65 -99 -137 -158 -164 -71 -33 -180 -33
-250 0 -129 62 -194 191 -182 359 10 124 59 214 144 264 88 51 168 61 263 31z"/>
<path d="M28985 2595 c-264 -55 -447 -280 -486 -597 -32 -261 44 -510 202
-667 111 -110 250 -165 414 -164 165 2 299 59 393 169 l42 49 0 -102 0 -103
210 0 210 0 0 705 0 705 -210 0 -210 0 0 -95 c0 -52 -2 -95 -5 -95 -2 0 -24
21 -47 47 -120 130 -320 188 -513 148z m375 -386 c211 -92 255 -439 75 -597
-57 -50 -119 -72 -205 -72 -54 0 -78 6 -128 31 -70 35 -104 71 -141 149 -23
49 -26 67 -26 170 0 96 4 123 22 161 72 157 247 225 403 158z"/>
<path d="M34473 2599 c-384 -59 -615 -382 -572 -802 19 -189 76 -316 198 -438
133 -133 288 -192 506 -191 214 1 361 57 496 192 59 59 85 94 117 160 22 47
44 95 47 108 l6 22 -230 0 c-151 0 -231 -4 -231 -10 0 -6 -18 -30 -41 -54 -66
-72 -159 -93 -268 -60 -91 27 -156 106 -176 216 l-7 38 488 2 489 3 -1 145 c0
131 -3 153 -28 225 -74 218 -236 370 -453 426 -91 23 -251 32 -340 18z m247
-355 c70 -30 134 -113 141 -184 l4 -35 -272 -3 c-150 -1 -273 -1 -273 1 0 2 7
27 16 56 25 87 108 163 196 181 53 11 141 3 188 -16z"/>
<path d="M37553 2599 c-339 -57 -555 -410 -504 -827 36 -295 194 -505 436
-582 96 -30 252 -31 346 -1 80 25 173 84 220 139 20 23 39 42 42 42 4 0 7 -43
7 -95 l0 -95 210 0 210 0 0 705 0 705 -210 0 -210 0 0 -95 c0 -52 -2 -95 -4
-95 -3 0 -28 25 -57 55 -113 120 -300 175 -486 144z m364 -395 c113 -54 176
-167 176 -319 0 -119 -26 -190 -97 -260 -60 -61 -121 -85 -212 -85 -123 0
-211 55 -266 168 -32 64 -33 72 -33 182 0 96 4 123 21 161 75 162 252 228 411
153z"/>
<path d="M30921 2584 c-80 -21 -185 -81 -231 -130 -22 -24 -43 -44 -45 -44 -3
0 -5 41 -5 90 l0 90 -215 0 -215 0 2 -702 3 -703 213 -3 212 -2 0 403 c0 443
4 485 59 562 43 60 125 99 209 99 37 0 85 -6 106 -13 55 -19 119 -82 147 -144
24 -52 24 -55 27 -479 l3 -428 210 0 209 0 0 454 c0 361 -3 470 -15 532 -40
208 -180 368 -364 416 -81 21 -236 22 -310 2z"/>
<path d="M36220 2593 c-91 -17 -226 -103 -290 -185 l-40 -50 0 116 0 116 -215
0 -215 0 0 -705 0 -705 213 2 212 3 5 390 5 391 25 48 c48 93 148 136 317 136
l93 0 0 225 0 225 -42 -1 c-24 -1 -54 -4 -68 -6z"/>
<path d="M21450 1885 l0 -705 213 2 212 3 3 703 2 702 -215 0 -215 0 0 -705z"/>
<path d="M26290 1885 l0 -705 210 0 210 0 0 705 0 705 -210 0 -210 0 0 -705z"/>
<path d="M36460 1764 l0 -826 -29 -29 c-28 -28 -34 -29 -115 -29 l-86 0 0
-186 0 -187 143 6 c78 3 168 13 200 21 124 34 214 101 262 197 54 105 55 130
55 1030 l0 829 -215 0 -215 0 0 -826z"/>
<path d="M1405 1420 c533 -534 973 -970 977 -970 5 0 8 437 8 970 l0 970 -977
0 -978 0 970 -970z"/>
</g>
</svg>
